<?xml version="1.0" standalone="no"?>
<!DOCTYPE svg PUBLIC "-//W3C//DTD SVG 20010904//EN"
 "http://www.w3.org/TR/2001/REC-SVG-20010904/DTD/svg10.dtd">
<svg version="1.0" xmlns="http://www.w3.org/2000/svg"
 width="96.000000pt" height="96.000000pt" viewBox="0 0 96.000000 96.000000"
 preserveAspectRatio="xMidYMid meet">
<metadata>
Created by potrace 1.11, written by Peter Selinger 2001-2013
</metadata>
<g transform="translate(0.000000,96.000000) scale(0.100000,-0.100000)"
fill="#000000" stroke="none">
<path d="M448 735 c-9 -21 -8 -28 7 -45 17 -19 15 -21 -69 -104 l-85 -85 -75
55 c-41 30 -77 54 -80 54 -5 0 1 -154 9 -235 2 -16 4 -63 4 -102 l1 -73 320 0
320 0 1 68 c0 37 3 94 5 127 5 61 11 163 13 201 1 14 10 24 25 28 45 11 42 76
-4 76 -29 0 -45 -27 -32 -55 11 -23 7 -28 -68 -85 l-79 -60 -89 88 c-86 85
-87 88 -68 104 18 13 19 19 8 42 -15 34 -49 34 -64 1z"/>
<path d="M90 685 c-17 -21 2 -65 29 -65 30 0 46 26 33 55 -13 28 -43 33 -62
10z"/>
</g>
</svg>
